<svg width="28" height="28" viewBox="0 0 28 28" fill="none" xmlns="http://www.w3.org/2000/svg">
<path d="M26.0338 10.8562C25.6208 10.444 25.2926 9.95474 25.0679 9.41621C24.8442 8.87722 24.7294 8.29928 24.7302 7.71572C24.7302 6.48625 24.2323 5.37776 23.4295 4.57187C23.0168 4.15885 22.5267 3.83135 21.9872 3.60813C21.4477 3.38492 20.8695 3.27039 20.2856 3.2711C19.7021 3.27131 19.1243 3.15626 18.5853 2.93255C18.0464 2.70885 17.557 2.3809 17.1451 1.96752C16.7327 1.55423 16.2426 1.22655 15.703 1.00331C15.1635 0.780081 14.5852 0.665703 14.0013 0.666755C13.4174 0.665703 12.839 0.780081 12.2995 1.00331C11.76 1.22655 11.2699 1.55423 10.8574 1.96752C10.4397 2.38521 9.95076 2.71138 9.41743 2.93314C8.8841 3.15489 8.30641 3.2711 7.71694 3.2711C6.48747 3.2711 5.37898 3.76906 4.57309 4.57187C4.16007 4.98453 3.83257 5.47466 3.60935 6.01415C3.38614 6.55364 3.27161 7.13188 3.27232 7.71572C3.27232 8.30519 3.15695 8.88316 2.93464 9.41649C2.70992 9.95503 2.38177 10.4443 1.96874 10.8565C1.55549 11.2689 1.22782 11.759 1.00459 12.2984C0.781356 12.8379 0.66696 13.4162 0.667975 14.0001C0.667975 15.1377 1.10054 16.2757 1.96874 17.1439C2.38177 17.5561 2.70992 18.0454 2.93464 18.5839C3.15834 19.1229 3.27311 19.7008 3.27232 20.2844C3.27232 21.5139 3.77028 22.6224 4.57309 23.4282C4.98575 23.8413 5.47588 24.1688 6.01537 24.392C6.55486 24.6152 7.1331 24.7297 7.71694 24.729C8.30641 24.729 8.88438 24.8444 9.41771 25.0667C9.95104 25.289 10.4397 25.6149 10.8577 26.0326C11.2701 26.4458 11.7602 26.7735 12.2997 26.9967C12.8391 27.22 13.4174 27.3344 14.0013 27.3334C15.139 27.3334 16.2769 26.9008 17.1451 26.0326C17.5628 25.6149 18.0518 25.2887 18.5851 25.067C19.1185 24.8452 19.6961 24.729 20.2856 24.729C21.5151 24.729 22.6236 24.2311 23.4295 23.4282C23.8425 23.0156 24.17 22.5255 24.3932 21.986C24.6164 21.4465 24.7309 20.8682 24.7302 20.2844C24.7302 19.6949 24.8456 19.117 25.0679 18.5836C25.2926 18.0451 25.6208 17.5559 26.0338 17.1436C26.4471 16.7312 26.7747 16.2412 26.998 15.7017C27.2212 15.1622 27.3356 14.5839 27.3346 14.0001C27.3346 12.8624 26.902 11.7244 26.0338 10.8562ZM20.4577 10.8977L12.579 18.7765C12.3565 18.9987 12.055 19.1236 11.7405 19.1236C11.4261 19.1236 11.1245 18.9987 10.9021 18.7765L7.54487 15.4193C7.32289 15.1967 7.19824 14.8952 7.19824 14.5808C7.19824 14.2665 7.32289 13.965 7.54487 13.7424C7.76746 13.5203 8.06905 13.3956 8.38347 13.3956C8.69789 13.3956 8.99947 13.5203 9.22206 13.7424L11.7405 16.2639L18.7805 9.22393C19.0031 9.00187 19.3047 8.87716 19.6191 8.87716C19.9335 8.87716 20.2351 9.00187 20.4577 9.22393C20.6795 9.44595 20.8042 9.74697 20.8042 10.0608C20.8042 10.3747 20.6795 10.6757 20.4577 10.8977Z" fill="#97144D"/>
</svg>
