<svg width="178" height="33" viewBox="0 0 178 33" fill="none" xmlns="http://www.w3.org/2000/svg">
<path d="M9.46991 18.192C5.26991 18.192 1.38191 15.384 1.38191 9.6C1.38191 3.792 5.29391 1.008 9.46991 1.008C13.1419 1.008 16.1179 3.288 16.5739 6.432H14.4379C14.1259 4.368 12.0379 2.856 9.46991 2.856C5.96591 2.856 3.49391 5.232 3.49391 9.6C3.49391 13.968 5.96591 16.344 9.46991 16.344C12.0859 16.344 14.1979 14.832 14.4619 12.768H16.5499C16.1899 15.912 13.2139 18.192 9.46991 18.192ZM24.585 18.192C21.009 18.192 18.441 15.576 18.441 11.952C18.441 8.304 21.009 5.712 24.585 5.712C28.185 5.712 30.753 8.304 30.753 11.952C30.753 15.576 28.185 18.192 24.585 18.192ZM20.409 11.952C20.409 14.592 22.113 16.464 24.585 16.464C27.081 16.464 28.785 14.592 28.785 11.952C28.785 9.312 27.081 7.44 24.585 7.44C22.113 7.44 20.409 9.312 20.409 11.952ZM33.5545 18V5.904H35.4745V8.232C35.9545 6.768 37.2745 5.712 39.1465 5.712C41.1385 5.712 42.6985 6.624 43.1065 8.28C43.5625 6.84 45.1945 5.712 47.0185 5.712C49.6345 5.712 51.2425 7.464 51.2425 10.392V18H49.3225V10.896C49.3225 8.832 48.2905 7.416 46.5865 7.416C44.5465 7.416 43.3465 8.832 43.3465 10.896V18H41.4265V10.896C41.4265 8.832 40.3945 7.416 38.7145 7.416C36.6985 7.416 35.4745 8.832 35.4745 10.896V18H33.5545ZM54.7185 18V5.904H56.6385V8.232C57.1185 6.768 58.4385 5.712 60.3105 5.712C62.3025 5.712 63.8625 6.624 64.2705 8.28C64.7265 6.84 66.3585 5.712 68.1825 5.712C70.7985 5.712 72.4065 7.464 72.4065 10.392V18H70.4865V10.896C70.4865 8.832 69.4545 7.416 67.7505 7.416C65.7105 7.416 64.5105 8.832 64.5105 10.896V18H62.5905V10.896C62.5905 8.832 61.5585 7.416 59.8785 7.416C57.8625 7.416 56.6385 8.832 56.6385 10.896V18H54.7185ZM87.0906 5.904V18H83.1306V16.608C82.4346 17.544 81.1626 18.192 79.5786 18.192C76.8666 18.192 75.0906 16.2 75.0906 13.512V5.904H79.0506V12.576C79.0506 13.776 79.8906 14.688 81.0906 14.688C82.2906 14.688 83.1306 13.776 83.1306 12.576V5.904H87.0906ZM89.3903 18V5.904H93.3503V7.296C94.0463 6.36 95.3183 5.712 96.9023 5.712C99.6143 5.712 101.39 7.704 101.39 10.392V18H97.4303V11.328C97.4303 10.128 96.5903 9.216 95.3903 9.216C94.1903 9.216 93.3503 10.128 93.3503 11.328V18H89.3903ZM103.57 18V5.904H107.53V18H103.57ZM103.498 4.416V0.527999H107.626V4.416H103.498ZM115.66 18.192C111.94 18.192 109.276 15.6 109.276 11.952C109.276 8.304 111.94 5.712 115.66 5.712C119.044 5.712 121.588 7.776 121.756 10.632H117.772C117.58 9.72 116.764 9.072 115.804 9.072C114.34 9.072 113.38 10.2 113.38 11.952C113.38 13.704 114.364 14.832 115.852 14.832C116.836 14.832 117.652 14.16 117.82 13.248H121.876C121.564 16.008 118.828 18.192 115.66 18.192ZM126.853 18.192C124.597 18.192 122.989 16.584 122.989 14.568C122.989 12.192 124.717 10.752 127.261 10.752H128.989C129.613 10.752 129.949 10.32 129.949 9.744C129.949 9.024 129.349 8.52 128.269 8.52C126.949 8.52 126.469 9.336 126.445 10.2H122.989C123.085 7.752 124.933 5.712 128.509 5.712C131.533 5.712 133.885 7.488 133.885 10.224V18H129.949V16.512C129.637 17.52 128.413 18.192 126.853 18.192ZM126.733 14.376C126.733 15 127.261 15.432 127.957 15.432C129.229 15.432 129.949 14.376 129.949 13.248V13.152H127.933C127.237 13.152 126.733 13.656 126.733 14.376ZM139.822 18C138.502 18 137.758 17.256 137.758 15.96V7.608H135.238V5.904H137.758V2.04H139.678V5.904H143.398V7.608H139.678V16.296H143.398V18H139.822ZM145.773 18V5.904H147.693V18H145.773ZM145.629 3.624V0.935999H147.837V3.624H145.629ZM156.679 18.192C153.103 18.192 150.535 15.576 150.535 11.952C150.535 8.304 153.103 5.712 156.679 5.712C160.279 5.712 162.847 8.304 162.847 11.952C162.847 15.576 160.279 18.192 156.679 18.192ZM152.503 11.952C152.503 14.592 154.207 16.464 156.679 16.464C159.175 16.464 160.879 14.592 160.879 11.952C160.879 9.312 159.175 7.44 156.679 7.44C154.207 7.44 152.503 9.312 152.503 11.952ZM165.648 18V5.904H167.568V8.232C168.216 6.552 169.704 5.712 171.576 5.712C174.312 5.712 176.088 7.656 176.088 10.608V18H174.168V10.92C174.168 8.856 172.968 7.464 171.144 7.464C169.056 7.464 167.568 9.12 167.568 11.472V18H165.648Z" fill="black"/>
<path d="M123.408 30V21.6H124.212V30H123.408ZM126.277 30V23.952H127.033V25.212C127.345 24.3 128.113 23.856 129.073 23.856C130.441 23.856 131.329 24.828 131.329 26.328V30H130.573V26.424C130.573 25.296 129.937 24.552 128.965 24.552C127.837 24.552 127.033 25.464 127.033 26.748V30H126.277ZM135.71 30.096C133.79 30.096 132.77 28.704 132.77 26.976C132.77 25.248 133.79 23.856 135.71 23.856C136.598 23.856 137.438 24.336 137.81 25.044V21.504H138.566V30H137.81V28.908C137.438 29.616 136.598 30.096 135.71 30.096ZM133.574 26.976C133.574 28.44 134.426 29.4 135.734 29.4C137.042 29.4 137.894 28.44 137.894 26.976C137.894 25.512 137.042 24.552 135.734 24.552C134.426 24.552 133.574 25.512 133.574 26.976ZM145.507 23.952V30H144.751V28.74C144.439 29.652 143.671 30.096 142.711 30.096C141.343 30.096 140.455 29.124 140.455 27.624V23.952H141.211V27.528C141.211 28.656 141.847 29.4 142.819 29.4C143.947 29.4 144.751 28.488 144.751 27.204V23.952H145.507ZM149.348 30.096C147.98 30.096 147.08 29.34 146.984 28.092H147.74C147.824 28.944 148.388 29.4 149.348 29.4C150.188 29.4 150.74 28.92 150.74 28.368C150.74 26.388 147.128 28.14 147.128 25.512C147.128 24.504 147.968 23.856 149.264 23.856C150.548 23.856 151.424 24.576 151.496 25.668H150.74C150.644 24.816 149.792 24.552 149.216 24.552C148.436 24.552 147.92 24.936 147.92 25.512C147.92 27.264 151.532 25.584 151.532 28.368C151.532 29.424 150.656 30.096 149.348 30.096ZM154.47 30C153.87 30 153.534 29.664 153.534 29.064V24.648H152.238V23.952H153.534V21.972H154.29V23.952H156.21V24.648H154.29V29.304H156.21V30H154.47ZM157.448 24.888C157.448 24.288 157.784 23.952 158.384 23.952H160.436V24.648H158.204V30H157.448V24.888ZM161.609 30V23.952H162.365V30H161.609ZM161.525 22.728V21.504H162.437V22.728H161.525ZM163.872 26.928C163.872 25.092 165.024 23.856 166.728 23.856C168.384 23.856 169.5 24.984 169.5 26.652C169.5 26.76 169.488 26.964 169.476 27.048H164.64C164.688 28.404 165.624 29.4 166.836 29.4C167.904 29.4 168.576 28.92 168.78 28.092H169.572C169.38 29.304 168.336 30.096 166.836 30.096C165.12 30.096 163.872 28.728 163.872 26.928ZM164.688 26.352H168.708C168.624 25.236 167.88 24.552 166.728 24.552C165.624 24.552 164.88 25.224 164.688 26.352ZM172.938 30.096C171.57 30.096 170.67 29.34 170.574 28.092H171.33C171.414 28.944 171.978 29.4 172.938 29.4C173.778 29.4 174.33 28.92 174.33 28.368C174.33 26.388 170.718 28.14 170.718 25.512C170.718 24.504 171.558 23.856 172.854 23.856C174.138 23.856 175.014 24.576 175.086 25.668H174.33C174.234 24.816 173.382 24.552 172.806 24.552C172.026 24.552 171.51 24.936 171.51 25.512C171.51 27.264 175.122 25.584 175.122 28.368C175.122 29.424 174.246 30.096 172.938 30.096Z" fill="black"/>
</svg>
