<?xml version="1.0" encoding="UTF-8"?>
<svg xmlns="http://www.w3.org/2000/svg" xmlns:xlink="http://www.w3.org/1999/xlink" width="139px" height="38px" viewBox="0 0 139 38" version="1.1">
<g id="surface1">
<path style=" stroke:none;fill-rule:nonzero;fill:rgb(99.607843%,99.607843%,99.607843%);fill-opacity:1;" d="M 0 0 C 45.871094 0 91.738281 0 139 0 C 139 12.539062 139 25.078125 139 38 C 93.128906 38 47.261719 38 0 38 C 0 25.460938 0 12.921875 0 0 Z M 0 0 "/>
<path style=" stroke:none;fill-rule:nonzero;fill:rgb(27.450982%,56.862748%,78.039217%);fill-opacity:1;" d="M 57.855469 7.089844 C 58.054688 7.089844 58.054688 7.089844 58.257812 7.089844 C 58.695312 7.085938 59.132812 7.085938 59.570312 7.085938 C 59.722656 7.085938 59.875 7.082031 60.027344 7.082031 C 60.738281 7.082031 61.449219 7.078125 62.160156 7.078125 C 62.980469 7.078125 63.796875 7.074219 64.617188 7.070312 C 65.253906 7.066406 65.886719 7.066406 66.523438 7.066406 C 66.898438 7.066406 67.277344 7.0625 67.65625 7.0625 C 68.078125 7.058594 68.5 7.058594 68.925781 7.058594 C 69.046875 7.058594 69.171875 7.054688 69.300781 7.054688 C 70.089844 7.058594 70.734375 7.15625 71.332031 7.710938 C 71.777344 8.21875 71.964844 8.691406 71.96875 9.363281 C 71.96875 9.535156 71.96875 9.535156 71.972656 9.710938 C 71.972656 9.898438 71.972656 9.898438 71.972656 10.089844 C 71.972656 10.222656 71.972656 10.359375 71.972656 10.496094 C 71.976562 10.859375 71.976562 11.222656 71.976562 11.585938 C 71.976562 11.816406 71.976562 12.042969 71.976562 12.269531 C 71.980469 13.066406 71.980469 13.863281 71.980469 14.65625 C 71.980469 15.398438 71.980469 16.136719 71.984375 16.878906 C 71.988281 17.515625 71.988281 18.152344 71.988281 18.789062 C 71.988281 19.167969 71.988281 19.546875 71.992188 19.925781 C 71.996094 20.351562 71.992188 20.773438 71.992188 21.199219 C 71.992188 21.324219 71.996094 21.449219 71.996094 21.578125 C 71.988281 22.367188 71.894531 23.015625 71.339844 23.613281 C 70.699219 24.183594 70.164062 24.246094 69.335938 24.203125 C 66.714844 24.113281 65.050781 24.394531 62.945312 25.988281 C 62.492188 26.324219 62.011719 26.605469 61.519531 26.890625 C 61.445312 26.933594 61.371094 26.976562 61.292969 27.023438 C 60.628906 27.421875 60.628906 27.421875 60.300781 27.445312 C 60.191406 27.335938 60.191406 27.335938 60.078125 27.222656 C 60.113281 26.738281 60.25 26.394531 60.492188 25.980469 C 60.582031 25.824219 60.582031 25.824219 60.671875 25.667969 C 60.734375 25.5625 60.796875 25.457031 60.859375 25.347656 C 60.925781 25.238281 60.988281 25.128906 61.050781 25.019531 C 61.207031 24.753906 61.363281 24.488281 61.519531 24.222656 C 61.453125 24.222656 61.386719 24.226562 61.320312 24.226562 C 60.628906 24.238281 59.9375 24.246094 59.246094 24.253906 C 58.988281 24.253906 58.734375 24.257812 58.476562 24.265625 C 58.105469 24.269531 57.734375 24.273438 57.363281 24.277344 C 57.191406 24.28125 57.191406 24.28125 57.015625 24.285156 C 56.171875 24.285156 55.65625 24.078125 55.03125 23.515625 C 54.339844 22.777344 54.390625 21.789062 54.394531 20.84375 C 54.394531 20.71875 54.394531 20.59375 54.394531 20.464844 C 54.390625 20.058594 54.390625 19.648438 54.390625 19.238281 C 54.390625 18.953125 54.390625 18.667969 54.390625 18.382812 C 54.390625 17.785156 54.390625 17.191406 54.390625 16.59375 C 54.390625 15.902344 54.390625 15.214844 54.386719 14.527344 C 54.386719 13.863281 54.382812 13.199219 54.386719 12.53125 C 54.386719 12.25 54.382812 11.96875 54.382812 11.6875 C 54.382812 11.292969 54.382812 10.898438 54.382812 10.503906 C 54.382812 10.390625 54.382812 10.273438 54.382812 10.15625 C 54.386719 9.121094 54.570312 8.296875 55.3125 7.554688 C 56.0625 6.996094 56.960938 7.09375 57.855469 7.089844 Z M 57.855469 7.089844 "/>
<path style=" stroke:none;fill-rule:nonzero;fill:rgb(98.823529%,99.215686%,99.607843%);fill-opacity:1;" d="M 58.304688 10.222656 C 59.367188 10.222656 60.425781 10.222656 61.519531 10.222656 C 61.523438 10.738281 61.523438 11.257812 61.527344 11.792969 C 61.53125 12.121094 61.535156 12.449219 61.535156 12.78125 C 61.542969 13.300781 61.546875 13.824219 61.550781 14.347656 C 61.550781 14.769531 61.554688 15.191406 61.558594 15.613281 C 61.5625 15.769531 61.5625 15.929688 61.5625 16.089844 C 61.5625 17.082031 61.578125 18.019531 62.28125 18.78125 C 62.78125 19.007812 63.316406 18.964844 63.847656 18.890625 C 64.320312 18.683594 64.585938 18.292969 64.777344 17.820312 C 64.9375 17.191406 64.898438 16.523438 64.902344 15.875 C 64.902344 15.710938 64.90625 15.546875 64.90625 15.386719 C 64.914062 14.957031 64.914062 14.53125 64.917969 14.101562 C 64.921875 13.664062 64.925781 13.226562 64.933594 12.789062 C 64.941406 11.933594 64.949219 11.078125 64.957031 10.222656 C 65.980469 10.222656 67.003906 10.222656 68.058594 10.222656 C 68.078125 11.984375 68.078125 11.984375 68.082031 12.746094 C 68.082031 13.265625 68.085938 13.78125 68.09375 14.296875 C 68.097656 14.714844 68.101562 15.132812 68.101562 15.546875 C 68.101562 15.707031 68.101562 15.863281 68.105469 16.019531 C 68.128906 17.488281 67.980469 19.085938 66.949219 20.222656 C 66.023438 21.148438 64.753906 21.566406 63.457031 21.578125 C 62.007812 21.558594 60.699219 21.355469 59.617188 20.328125 C 58.386719 19.023438 58.234375 17.328125 58.261719 15.605469 C 58.261719 15.449219 58.261719 15.289062 58.261719 15.132812 C 58.265625 14.726562 58.269531 14.320312 58.273438 13.914062 C 58.277344 13.496094 58.28125 13.082031 58.28125 12.664062 C 58.289062 11.847656 58.296875 11.035156 58.304688 10.222656 Z M 58.304688 10.222656 "/>
<path style=" stroke:none;fill-rule:nonzero;fill:rgb(1.568628%,1.568628%,1.568628%);fill-opacity:1;" d="M 103.972656 15 C 104.605469 15.59375 105.027344 16.214844 105.109375 17.097656 C 105.121094 17.472656 105.121094 17.847656 105.117188 18.222656 C 105.117188 18.359375 105.117188 18.496094 105.117188 18.636719 C 105.117188 18.921875 105.113281 19.210938 105.113281 19.496094 C 105.109375 19.9375 105.109375 20.378906 105.105469 20.820312 C 105.105469 21.101562 105.105469 21.378906 105.105469 21.660156 C 105.101562 21.792969 105.101562 21.925781 105.101562 22.0625 C 105.101562 22.183594 105.101562 22.304688 105.097656 22.429688 C 105.097656 22.539062 105.097656 22.644531 105.097656 22.757812 C 105.082031 23 105.082031 23 104.96875 23.109375 C 104.796875 23.121094 104.625 23.121094 104.449219 23.121094 C 104.347656 23.121094 104.242188 23.121094 104.132812 23.121094 C 104.023438 23.121094 103.914062 23.117188 103.800781 23.117188 C 103.6875 23.117188 103.578125 23.117188 103.464844 23.117188 C 103.191406 23.113281 102.917969 23.113281 102.644531 23.109375 C 102.570312 22.855469 102.496094 22.597656 102.421875 22.332031 C 102.367188 22.378906 102.3125 22.425781 102.253906 22.472656 C 101.375 23.171875 100.542969 23.339844 99.429688 23.222656 C 98.714844 23.019531 98.050781 22.640625 97.625 22.019531 C 97.234375 21.277344 97.210938 20.488281 97.320312 19.667969 C 97.554688 19.015625 98.070312 18.472656 98.652344 18.109375 C 99.40625 17.753906 100.085938 17.722656 100.910156 17.707031 C 101.148438 17.703125 101.386719 17.695312 101.625 17.691406 C 101.730469 17.6875 101.835938 17.6875 101.945312 17.683594 C 102.203125 17.683594 102.203125 17.683594 102.421875 17.554688 C 102.464844 17.054688 102.480469 16.78125 102.242188 16.332031 C 101.644531 15.980469 100.992188 15.996094 100.316406 16.109375 C 99.722656 16.449219 99.742188 16.613281 99.539062 17.332031 C 98.808594 17.332031 98.074219 17.332031 97.320312 17.332031 C 97.320312 16.464844 97.476562 15.890625 98.058594 15.242188 C 98.25 15.070312 98.441406 14.921875 98.652344 14.777344 C 98.828125 14.652344 98.828125 14.652344 99.003906 14.527344 C 100.507812 13.71875 102.660156 13.945312 103.972656 15 Z M 103.972656 15 "/>
<path style=" stroke:none;fill-rule:nonzero;fill:rgb(0.784314%,0.784314%,0.784314%);fill-opacity:1;" d="M 80.269531 14.578125 C 80.867188 14.980469 81.179688 15.460938 81.472656 16.109375 C 81.507812 16.195312 81.546875 16.277344 81.585938 16.363281 C 81.707031 16.703125 81.71875 16.964844 81.71875 17.320312 C 81.71875 17.449219 81.71875 17.578125 81.71875 17.710938 C 81.71875 17.851562 81.714844 17.988281 81.714844 18.128906 C 81.714844 18.273438 81.714844 18.414062 81.714844 18.5625 C 81.710938 18.9375 81.710938 19.316406 81.707031 19.691406 C 81.707031 20.078125 81.703125 20.460938 81.703125 20.847656 C 81.703125 21.601562 81.699219 22.355469 81.691406 23.109375 C 80.886719 23.109375 80.082031 23.109375 79.253906 23.109375 C 79.25 22.71875 79.25 22.328125 79.246094 21.921875 C 79.242188 21.542969 79.238281 21.160156 79.230469 20.78125 C 79.226562 20.515625 79.226562 20.253906 79.222656 19.988281 C 79.222656 19.609375 79.214844 19.226562 79.210938 18.847656 C 79.210938 18.730469 79.210938 18.613281 79.210938 18.492188 C 79.195312 17.789062 79.121094 17.347656 78.699219 16.777344 C 78.183594 16.40625 77.65625 16.34375 77.039062 16.445312 C 76.527344 16.695312 76.152344 17.027344 75.929688 17.554688 C 75.863281 17.980469 75.863281 18.40625 75.863281 18.835938 C 75.859375 18.957031 75.859375 19.082031 75.855469 19.207031 C 75.851562 19.597656 75.847656 19.984375 75.847656 20.375 C 75.84375 20.640625 75.839844 20.902344 75.835938 21.167969 C 75.828125 21.816406 75.824219 22.464844 75.816406 23.109375 C 75.011719 23.109375 74.207031 23.109375 73.378906 23.109375 C 73.378906 20.179688 73.378906 17.246094 73.378906 14.222656 C 74.183594 14.222656 74.988281 14.222656 75.816406 14.222656 C 75.855469 14.515625 75.890625 14.808594 75.929688 15.109375 C 75.984375 15.066406 76.035156 15.023438 76.09375 14.976562 C 77.359375 13.972656 78.820312 13.757812 80.269531 14.578125 Z M 80.269531 14.578125 "/>
<path style=" stroke:none;fill-rule:nonzero;fill:rgb(1.176471%,1.176471%,1.176471%);fill-opacity:1;" d="M 94.882812 15 C 95.429688 15.429688 95.820312 15.921875 96.101562 16.554688 C 96.15625 17.050781 96.15625 17.050781 96.214844 17.554688 C 95.410156 17.554688 94.605469 17.554688 93.773438 17.554688 C 93.628906 17.300781 93.484375 17.042969 93.332031 16.777344 C 92.984375 16.449219 92.585938 16.308594 92.113281 16.285156 C 91.546875 16.316406 91.089844 16.511719 90.644531 16.859375 C 90.046875 17.632812 90.035156 18.382812 90.117188 19.332031 C 90.222656 19.929688 90.484375 20.394531 90.964844 20.769531 C 91.582031 21.050781 92.375 21.023438 93.015625 20.8125 C 93.453125 20.550781 93.539062 20.253906 93.773438 19.777344 C 94.617188 19.777344 95.457031 19.777344 96.324219 19.777344 C 95.980469 21.046875 95.640625 21.777344 94.578125 22.523438 C 93.367188 23.214844 91.964844 23.421875 90.609375 23.105469 C 89.5 22.757812 88.609375 22.117188 88.011719 21.109375 C 87.417969 19.878906 87.222656 18.503906 87.554688 17.164062 C 88.046875 15.90625 88.800781 15.046875 90.007812 14.445312 C 91.6875 13.765625 93.371094 14.078125 94.882812 15 Z M 94.882812 15 "/>
<path style=" stroke:none;fill-rule:nonzero;fill:rgb(3.921569%,3.921569%,3.921569%);fill-opacity:1;" d="M 44.191406 14.078125 C 44.945312 14.085938 45.695312 14.371094 46.332031 14.757812 C 46.621094 15.074219 46.800781 15.398438 47 15.777344 C 47.050781 15.691406 47.050781 15.691406 47.105469 15.605469 C 47.609375 14.863281 48.25 14.398438 49.105469 14.109375 C 50.160156 14.011719 50.949219 14.199219 51.855469 14.742188 C 52.804688 15.75 52.90625 16.890625 52.898438 18.210938 C 52.898438 18.347656 52.898438 18.484375 52.898438 18.625 C 52.898438 18.914062 52.898438 19.199219 52.894531 19.488281 C 52.894531 19.929688 52.894531 20.375 52.894531 20.816406 C 52.894531 21.097656 52.894531 21.375 52.890625 21.65625 C 52.890625 21.789062 52.890625 21.921875 52.890625 22.058594 C 52.890625 22.179688 52.890625 22.304688 52.890625 22.429688 C 52.890625 22.535156 52.886719 22.644531 52.886719 22.753906 C 52.875 23 52.875 23 52.761719 23.109375 C 52.597656 23.121094 52.429688 23.125 52.261719 23.125 C 52.171875 23.125 52.082031 23.125 51.988281 23.125 C 51.765625 23.109375 51.765625 23.109375 51.652344 23 C 51.644531 22.816406 51.640625 22.636719 51.636719 22.453125 C 51.636719 22.28125 51.636719 22.28125 51.636719 22.101562 C 51.636719 21.972656 51.636719 21.847656 51.632812 21.714844 C 51.632812 21.449219 51.628906 21.179688 51.625 20.910156 C 51.621094 20.488281 51.621094 20.066406 51.617188 19.640625 C 51.617188 19.234375 51.613281 18.824219 51.605469 18.417969 C 51.605469 18.292969 51.605469 18.167969 51.605469 18.039062 C 51.59375 17.195312 51.5 16.355469 50.929688 15.691406 C 50.550781 15.339844 50.171875 15.292969 49.664062 15.277344 C 48.894531 15.316406 48.355469 15.425781 47.796875 15.972656 C 47.222656 16.824219 47.167969 17.484375 47.164062 18.5 C 47.160156 18.632812 47.160156 18.765625 47.15625 18.898438 C 47.152344 19.320312 47.148438 19.738281 47.144531 20.160156 C 47.140625 20.445312 47.136719 20.730469 47.132812 21.015625 C 47.121094 21.714844 47.117188 22.414062 47.109375 23.109375 C 46.742188 23.109375 46.378906 23.109375 46 23.109375 C 46 22.933594 46 22.757812 45.996094 22.578125 C 45.992188 21.921875 45.984375 21.265625 45.976562 20.609375 C 45.976562 20.324219 45.972656 20.042969 45.972656 19.757812 C 45.96875 19.347656 45.964844 18.941406 45.957031 18.53125 C 45.957031 18.40625 45.957031 18.28125 45.957031 18.152344 C 45.941406 17.320312 45.855469 16.464844 45.28125 15.8125 C 44.707031 15.308594 44.183594 15.292969 43.453125 15.300781 C 42.828125 15.359375 42.445312 15.640625 42.03125 16.105469 C 41.671875 16.605469 41.539062 16.996094 41.535156 17.613281 C 41.53125 17.792969 41.53125 17.792969 41.527344 17.976562 C 41.527344 18.101562 41.527344 18.230469 41.523438 18.363281 C 41.523438 18.496094 41.519531 18.628906 41.519531 18.761719 C 41.511719 19.183594 41.507812 19.605469 41.503906 20.027344 C 41.5 20.449219 41.496094 20.875 41.488281 21.296875 C 41.484375 21.558594 41.480469 21.824219 41.480469 22.085938 C 41.476562 22.207031 41.476562 22.324219 41.476562 22.445312 C 41.472656 22.550781 41.472656 22.65625 41.472656 22.761719 C 41.457031 23 41.457031 23 41.34375 23.109375 C 41.179688 23.121094 41.011719 23.125 40.847656 23.125 C 40.757812 23.125 40.664062 23.125 40.574219 23.125 C 40.347656 23.109375 40.347656 23.109375 40.238281 23 C 40.226562 22.730469 40.222656 22.464844 40.222656 22.195312 C 40.222656 22.109375 40.222656 22.023438 40.222656 21.9375 C 40.222656 21.65625 40.222656 21.378906 40.222656 21.097656 C 40.222656 20.902344 40.222656 20.710938 40.222656 20.515625 C 40.222656 20.109375 40.222656 19.703125 40.222656 19.296875 C 40.222656 18.773438 40.222656 18.25 40.222656 17.726562 C 40.222656 17.324219 40.222656 16.925781 40.222656 16.523438 C 40.222656 16.332031 40.222656 16.140625 40.222656 15.945312 C 40.222656 15.675781 40.222656 15.410156 40.222656 15.140625 C 40.222656 15.058594 40.222656 14.980469 40.222656 14.894531 C 40.222656 14.347656 40.222656 14.347656 40.347656 14.222656 C 40.511719 14.210938 40.679688 14.207031 40.847656 14.207031 C 40.9375 14.207031 41.027344 14.207031 41.121094 14.207031 C 41.34375 14.222656 41.34375 14.222656 41.457031 14.332031 C 41.480469 14.519531 41.5 14.707031 41.519531 14.894531 C 41.527344 14.996094 41.535156 15.101562 41.546875 15.207031 C 41.554688 15.285156 41.558594 15.363281 41.566406 15.445312 C 41.605469 15.394531 41.644531 15.34375 41.683594 15.289062 C 42.171875 14.683594 42.605469 14.308594 43.390625 14.140625 C 43.65625 14.121094 43.925781 14.097656 44.191406 14.078125 Z M 44.191406 14.078125 "/>
<path style=" stroke:none;fill-rule:nonzero;fill:rgb(1.960784%,1.960784%,1.960784%);fill-opacity:1;" d="M 30.59375 14.445312 C 31.105469 14.792969 31.550781 15.152344 31.703125 15.777344 C 31.773438 15.777344 31.847656 15.777344 31.921875 15.777344 C 31.953125 15.660156 31.953125 15.660156 31.984375 15.542969 C 32.320312 14.867188 32.964844 14.464844 33.648438 14.1875 C 34.585938 13.921875 35.507812 14.109375 36.355469 14.554688 C 37.03125 15.027344 37.363281 15.660156 37.578125 16.445312 C 37.632812 16.96875 37.628906 17.484375 37.621094 18.011719 C 37.621094 18.15625 37.617188 18.304688 37.617188 18.453125 C 37.617188 18.839844 37.613281 19.226562 37.605469 19.609375 C 37.601562 20.007812 37.601562 20.402344 37.597656 20.796875 C 37.59375 21.566406 37.585938 22.339844 37.578125 23.109375 C 37.210938 23.109375 36.84375 23.109375 36.46875 23.109375 C 36.46875 22.929688 36.464844 22.75 36.464844 22.566406 C 36.460938 21.894531 36.453125 21.226562 36.445312 20.554688 C 36.441406 20.265625 36.441406 19.976562 36.4375 19.6875 C 36.4375 19.269531 36.429688 18.851562 36.425781 18.433594 C 36.425781 18.304688 36.425781 18.175781 36.425781 18.046875 C 36.410156 17.222656 36.328125 16.449219 35.75 15.820312 C 35.171875 15.3125 34.65625 15.292969 33.917969 15.304688 C 33.332031 15.355469 33.007812 15.554688 32.621094 15.992188 C 32.203125 16.527344 32.023438 16.910156 32.011719 17.597656 C 32.007812 17.722656 32.007812 17.84375 32.003906 17.96875 C 32.003906 18.101562 32 18.234375 32 18.371094 C 31.996094 18.503906 31.996094 18.640625 31.992188 18.777344 C 31.984375 19.210938 31.976562 19.644531 31.972656 20.078125 C 31.96875 20.371094 31.960938 20.664062 31.957031 20.953125 C 31.945312 21.671875 31.933594 22.390625 31.921875 23.109375 C 31.742188 23.113281 31.558594 23.117188 31.375 23.117188 C 31.273438 23.121094 31.171875 23.121094 31.066406 23.121094 C 30.816406 23.109375 30.816406 23.109375 30.703125 23 C 30.691406 22.808594 30.6875 22.621094 30.6875 22.429688 C 30.6875 22.308594 30.6875 22.1875 30.6875 22.0625 C 30.6875 21.929688 30.683594 21.796875 30.683594 21.660156 C 30.683594 21.378906 30.679688 21.101562 30.675781 20.820312 C 30.671875 20.378906 30.667969 19.9375 30.667969 19.496094 C 30.667969 19.070312 30.660156 18.648438 30.65625 18.222656 C 30.65625 18.089844 30.65625 17.960938 30.65625 17.824219 C 30.644531 17.054688 30.566406 16.542969 30.148438 15.890625 C 29.582031 15.347656 29.109375 15.300781 28.351562 15.308594 C 27.78125 15.351562 27.421875 15.542969 26.96875 15.902344 C 26.296875 16.742188 26.203125 17.554688 26.203125 18.609375 C 26.199219 18.738281 26.199219 18.867188 26.195312 19 C 26.191406 19.410156 26.191406 19.820312 26.1875 20.230469 C 26.183594 20.507812 26.179688 20.789062 26.175781 21.066406 C 26.167969 21.75 26.164062 22.429688 26.160156 23.109375 C 25.792969 23.109375 25.429688 23.109375 25.050781 23.109375 C 25.050781 20.179688 25.050781 17.246094 25.050781 14.222656 C 25.417969 14.222656 25.78125 14.222656 26.160156 14.222656 C 26.195312 14.699219 26.234375 15.175781 26.269531 15.667969 C 26.328125 15.566406 26.390625 15.46875 26.449219 15.367188 C 27.394531 13.960938 29.121094 13.738281 30.59375 14.445312 Z M 30.59375 14.445312 "/>
<path style=" stroke:none;fill-rule:nonzero;fill:rgb(98.823529%,98.823529%,98.823529%);fill-opacity:1;" d="M 122.945312 15.535156 C 123.722656 16.035156 124.160156 16.613281 124.515625 17.457031 C 124.746094 18.773438 124.574219 19.757812 123.953125 20.917969 C 123.441406 21.542969 122.847656 21.976562 122.039062 22.109375 C 121.015625 22.199219 120.09375 22.148438 119.261719 21.484375 C 118.597656 20.847656 118.171875 20.136719 118.125 19.199219 C 118.089844 17.40625 118.089844 17.40625 118.605469 16.667969 C 118.660156 16.589844 118.710938 16.511719 118.769531 16.429688 C 119.765625 15.148438 121.488281 14.746094 122.945312 15.535156 Z M 122.945312 15.535156 "/>
<path style=" stroke:none;fill-rule:nonzero;fill:rgb(98.823529%,98.823529%,98.823529%);fill-opacity:1;" d="M 20.015625 15.445312 C 20.804688 15.921875 21.339844 16.59375 21.652344 17.460938 C 21.910156 18.578125 21.808594 19.757812 21.214844 20.734375 C 20.753906 21.386719 20.160156 21.867188 19.398438 22.109375 C 18.351562 22.21875 17.386719 22.21875 16.515625 21.554688 C 15.742188 20.890625 15.359375 20.066406 15.257812 19.054688 C 15.230469 17.972656 15.386719 17.082031 16.074219 16.222656 C 17.105469 15.167969 18.640625 14.820312 20.015625 15.445312 Z M 20.015625 15.445312 "/>
<path style=" stroke:none;fill-rule:nonzero;fill:rgb(1.960784%,1.960784%,1.960784%);fill-opacity:1;" d="M 7.496094 10.75 C 7.601562 10.746094 7.707031 10.746094 7.8125 10.742188 C 9.265625 10.734375 10.492188 11.277344 11.574219 12.246094 C 12.132812 12.871094 12.636719 13.707031 12.636719 14.554688 C 12.199219 14.554688 11.757812 14.554688 11.304688 14.554688 C 11.246094 14.332031 11.246094 14.332031 11.179688 14.105469 C 10.851562 13.136719 10.269531 12.710938 9.386719 12.242188 C 8.382812 11.804688 6.898438 11.832031 5.867188 12.171875 C 4.605469 12.734375 3.976562 13.585938 3.425781 14.832031 C 2.890625 16.40625 3.078125 18.292969 3.769531 19.777344 C 4.257812 20.730469 4.992188 21.371094 5.984375 21.777344 C 7.445312 22.234375 8.777344 22.003906 10.109375 21.308594 C 10.726562 20.914062 11.054688 20.425781 11.238281 19.722656 C 11.261719 19.59375 11.28125 19.464844 11.304688 19.332031 C 11.746094 19.332031 12.183594 19.332031 12.636719 19.332031 C 12.566406 20.417969 12.042969 21.257812 11.261719 21.996094 C 10.765625 22.382812 10.21875 22.644531 9.644531 22.890625 C 9.550781 22.929688 9.460938 22.96875 9.367188 23.011719 C 7.914062 23.535156 6.3125 23.257812 4.9375 22.660156 C 3.554688 21.960938 2.628906 20.800781 2.121094 19.347656 C 1.589844 17.632812 1.636719 15.390625 2.4375 13.777344 C 2.667969 13.375 2.917969 13.019531 3.214844 12.667969 C 3.304688 12.550781 3.304688 12.550781 3.398438 12.433594 C 4.441406 11.242188 5.96875 10.757812 7.496094 10.75 Z M 7.496094 10.75 "/>
<path style=" stroke:none;fill-rule:nonzero;fill:rgb(2.352941%,2.352941%,2.352941%);fill-opacity:1;" d="M 21.03125 14.777344 C 22.070312 15.492188 22.707031 16.546875 22.945312 17.777344 C 23.101562 19.292969 22.816406 20.628906 21.875 21.839844 C 21 22.75 19.90625 23.214844 18.65625 23.242188 C 17.289062 23.222656 16.179688 22.863281 15.1875 21.890625 C 14.3125 20.84375 13.996094 19.605469 14.042969 18.261719 C 14.152344 17.066406 14.570312 16.015625 15.464844 15.1875 C 17.140625 13.890625 19.175781 13.707031 21.03125 14.777344 Z M 15.894531 16.445312 C 15.242188 17.375 15.214844 18.339844 15.296875 19.445312 C 15.5 20.417969 15.960938 21.132812 16.75 21.734375 C 17.578125 22.230469 18.46875 22.226562 19.398438 22.109375 C 20.375 21.832031 20.980469 21.171875 21.488281 20.320312 C 21.859375 19.375 21.898438 18.136719 21.550781 17.179688 C 21.15625 16.339844 20.582031 15.699219 19.730469 15.316406 C 18.25 14.894531 16.867188 15.230469 15.894531 16.445312 Z M 15.894531 16.445312 "/>
<path style=" stroke:none;fill-rule:nonzero;fill:rgb(2.352941%,2.352941%,2.352941%);fill-opacity:1;" d="M 121.203125 14.085938 C 122.359375 14.023438 123.429688 14.382812 124.3125 15.132812 C 125.261719 16.074219 125.808594 17.199219 125.851562 18.542969 C 125.808594 19.914062 125.378906 21.074219 124.453125 22.089844 C 123.449219 23.027344 122.179688 23.28125 120.851562 23.257812 C 119.730469 23.148438 118.6875 22.574219 117.910156 21.765625 C 116.964844 20.582031 116.785156 19.015625 116.941406 17.554688 C 117.261719 16.324219 117.96875 15.332031 119.046875 14.667969 C 119.761719 14.273438 120.40625 14.160156 121.203125 14.085938 Z M 118.679688 16.492188 C 118.230469 17.179688 118.101562 17.84375 118.113281 18.660156 C 118.113281 18.746094 118.113281 18.835938 118.117188 18.925781 C 118.144531 19.953125 118.476562 20.613281 119.171875 21.363281 C 119.925781 22.058594 120.683594 22.144531 121.671875 22.132812 C 122.511719 22.082031 123.113281 21.8125 123.726562 21.234375 C 124.574219 20.234375 124.664062 19.152344 124.589844 17.890625 C 124.4375 16.949219 123.875 16.203125 123.140625 15.617188 C 121.5 14.742188 119.871094 15.144531 118.679688 16.492188 Z M 118.679688 16.492188 "/>
<path style=" stroke:none;fill-rule:nonzero;fill:rgb(1.176471%,1.176471%,1.176471%);fill-opacity:1;" d="M 133.976562 14.679688 C 134.695312 15.238281 135.085938 16 135.230469 16.890625 C 135.261719 17.371094 135.257812 17.851562 135.253906 18.335938 C 135.253906 18.472656 135.253906 18.609375 135.253906 18.75 C 135.25 19.1875 135.246094 19.621094 135.246094 20.054688 C 135.242188 20.351562 135.242188 20.648438 135.242188 20.941406 C 135.238281 21.664062 135.234375 22.386719 135.230469 23.109375 C 134.867188 23.109375 134.5 23.109375 134.121094 23.109375 C 134.121094 22.933594 134.121094 22.757812 134.121094 22.578125 C 134.117188 21.921875 134.113281 21.265625 134.105469 20.609375 C 134.101562 20.324219 134.101562 20.042969 134.101562 19.757812 C 134.101562 19.347656 134.09375 18.941406 134.089844 18.53125 C 134.089844 18.40625 134.089844 18.28125 134.089844 18.152344 C 134.074219 17.261719 133.90625 16.480469 133.28125 15.8125 C 132.671875 15.289062 132.203125 15.289062 131.421875 15.296875 C 130.726562 15.359375 130.273438 15.59375 129.820312 16.125 C 129.203125 17.003906 129.101562 17.78125 129.089844 18.835938 C 129.085938 18.957031 129.085938 19.082031 129.082031 19.207031 C 129.074219 19.597656 129.070312 19.984375 129.066406 20.375 C 129.0625 20.640625 129.058594 20.902344 129.050781 21.167969 C 129.042969 21.816406 129.03125 22.464844 129.023438 23.109375 C 128.65625 23.109375 128.292969 23.109375 127.914062 23.109375 C 127.914062 20.179688 127.914062 17.246094 127.914062 14.222656 C 128.28125 14.222656 128.648438 14.222656 129.023438 14.222656 C 129.058594 14.699219 129.097656 15.175781 129.136719 15.667969 C 129.269531 15.464844 129.269531 15.464844 129.40625 15.257812 C 130.480469 13.816406 132.539062 13.769531 133.976562 14.679688 Z M 133.976562 14.679688 "/>
<path style=" stroke:none;fill-rule:nonzero;fill:rgb(3.921569%,3.921569%,3.921569%);fill-opacity:1;" d="M 84.09375 14.207031 C 84.25 14.207031 84.25 14.207031 84.410156 14.207031 C 84.519531 14.207031 84.628906 14.207031 84.742188 14.207031 C 84.90625 14.207031 84.90625 14.207031 85.074219 14.207031 C 85.175781 14.207031 85.28125 14.207031 85.390625 14.207031 C 85.484375 14.207031 85.582031 14.207031 85.679688 14.207031 C 85.90625 14.222656 85.90625 14.222656 86.015625 14.332031 C 86.027344 14.601562 86.03125 14.871094 86.03125 15.140625 C 86.03125 15.222656 86.03125 15.308594 86.03125 15.394531 C 86.03125 15.675781 86.03125 15.957031 86.03125 16.234375 C 86.03125 16.429688 86.03125 16.625 86.03125 16.816406 C 86.03125 17.226562 86.03125 17.632812 86.03125 18.039062 C 86.03125 18.5625 86.03125 19.082031 86.03125 19.605469 C 86.03125 20.007812 86.03125 20.40625 86.03125 20.808594 C 86.03125 21 86.03125 21.195312 86.03125 21.386719 C 86.03125 21.65625 86.03125 21.925781 86.03125 22.195312 C 86.03125 22.273438 86.03125 22.355469 86.03125 22.4375 C 86.027344 22.988281 86.027344 22.988281 85.90625 23.109375 C 85.734375 23.121094 85.5625 23.125 85.390625 23.125 C 85.234375 23.125 85.234375 23.125 85.074219 23.125 C 84.910156 23.125 84.910156 23.125 84.742188 23.125 C 84.632812 23.125 84.523438 23.125 84.410156 23.125 C 84.304688 23.125 84.199219 23.125 84.09375 23.125 C 83.996094 23.125 83.902344 23.125 83.800781 23.125 C 83.578125 23.109375 83.578125 23.109375 83.464844 23 C 83.457031 22.730469 83.453125 22.464844 83.453125 22.195312 C 83.453125 22.109375 83.453125 22.023438 83.453125 21.9375 C 83.449219 21.65625 83.453125 21.378906 83.453125 21.097656 C 83.453125 20.902344 83.453125 20.710938 83.453125 20.515625 C 83.453125 20.109375 83.453125 19.703125 83.453125 19.296875 C 83.453125 18.773438 83.453125 18.25 83.453125 17.726562 C 83.453125 17.324219 83.453125 16.925781 83.453125 16.523438 C 83.453125 16.332031 83.453125 16.140625 83.453125 15.945312 C 83.449219 15.675781 83.453125 15.410156 83.453125 15.140625 C 83.453125 15.058594 83.453125 14.980469 83.453125 14.894531 C 83.453125 14.269531 83.472656 14.207031 84.09375 14.207031 Z M 84.09375 14.207031 "/>
<path style=" stroke:none;fill-rule:nonzero;fill:rgb(2.352941%,2.352941%,2.352941%);fill-opacity:1;" d="M 107.964844 11.445312 C 108.367188 11.445312 108.769531 11.445312 109.183594 11.445312 C 109.183594 12.359375 109.183594 13.277344 109.183594 14.222656 C 110.058594 14.222656 110.9375 14.222656 111.84375 14.222656 C 111.84375 14.589844 111.84375 14.957031 111.84375 15.332031 C 110.929688 15.332031 110.015625 15.332031 109.070312 15.332031 C 109.070312 17.535156 109.070312 19.734375 109.070312 22 C 109.984375 22 110.902344 22 111.84375 22 C 111.84375 22.367188 111.84375 22.734375 111.84375 23.109375 C 111.359375 23.125 110.875 23.132812 110.386719 23.140625 C 110.25 23.144531 110.113281 23.144531 109.972656 23.148438 C 108.832031 23.164062 108.832031 23.164062 108.433594 22.921875 C 107.992188 22.46875 107.9375 22.042969 107.9375 21.425781 C 107.9375 21.289062 107.9375 21.15625 107.9375 21.015625 C 107.9375 20.871094 107.941406 20.722656 107.941406 20.574219 C 107.941406 20.421875 107.941406 20.273438 107.941406 20.121094 C 107.945312 19.722656 107.945312 19.328125 107.949219 18.929688 C 107.949219 18.527344 107.953125 18.121094 107.953125 17.714844 C 107.953125 16.921875 107.957031 16.128906 107.964844 15.332031 C 107.339844 15.332031 106.71875 15.332031 106.078125 15.332031 C 106.078125 14.964844 106.078125 14.601562 106.078125 14.222656 C 106.699219 14.222656 107.324219 14.222656 107.964844 14.222656 C 107.964844 13.304688 107.964844 12.390625 107.964844 11.445312 Z M 107.964844 11.445312 "/>
<path style=" stroke:none;fill-rule:nonzero;fill:rgb(98.039216%,98.039216%,98.039216%);fill-opacity:1;" d="M 32.699219 25.554688 C 32.882812 25.554688 33.066406 25.554688 33.253906 25.554688 C 33.253906 27.570312 33.253906 29.589844 33.253906 31.667969 C 33.070312 31.667969 32.886719 31.667969 32.699219 31.667969 C 32.664062 31.519531 32.625 31.375 32.589844 31.222656 C 32.433594 31.328125 32.433594 31.328125 32.277344 31.4375 C 31.722656 31.796875 31.238281 31.871094 30.59375 31.777344 C 29.972656 31.523438 29.578125 31.152344 29.261719 30.554688 C 29.027344 29.800781 29.054688 28.917969 29.367188 28.191406 C 29.652344 27.726562 30.101562 27.433594 30.59375 27.222656 C 30.847656 27.179688 30.847656 27.179688 31.121094 27.171875 C 31.207031 27.167969 31.296875 27.164062 31.386719 27.160156 C 31.703125 27.222656 31.703125 27.222656 32.589844 27.777344 C 32.625 27.042969 32.660156 26.3125 32.699219 25.554688 Z M 32.699219 25.554688 "/>
<path style=" stroke:none;fill-rule:nonzero;fill:rgb(6.27451%,6.27451%,6.27451%);fill-opacity:1;" d="M 113.953125 14.207031 C 114.042969 14.207031 114.132812 14.207031 114.226562 14.207031 C 114.316406 14.207031 114.40625 14.207031 114.5 14.207031 C 114.726562 14.222656 114.726562 14.222656 114.835938 14.332031 C 114.847656 14.601562 114.851562 14.871094 114.851562 15.140625 C 114.851562 15.222656 114.851562 15.308594 114.851562 15.394531 C 114.851562 15.675781 114.851562 15.957031 114.851562 16.234375 C 114.851562 16.429688 114.851562 16.625 114.851562 16.816406 C 114.851562 17.226562 114.851562 17.632812 114.851562 18.039062 C 114.847656 18.5625 114.851562 19.082031 114.851562 19.605469 C 114.851562 20.007812 114.851562 20.40625 114.851562 20.808594 C 114.851562 21 114.851562 21.195312 114.851562 21.386719 C 114.851562 21.65625 114.851562 21.925781 114.851562 22.195312 C 114.851562 22.273438 114.851562 22.355469 114.851562 22.4375 C 114.847656 22.988281 114.847656 22.988281 114.726562 23.109375 C 114.558594 23.121094 114.390625 23.125 114.226562 23.125 C 114.136719 23.125 114.046875 23.125 113.953125 23.125 C 113.726562 23.109375 113.726562 23.109375 113.617188 23 C 113.605469 22.730469 113.601562 22.464844 113.601562 22.195312 C 113.601562 22.109375 113.601562 22.023438 113.601562 21.9375 C 113.601562 21.65625 113.601562 21.378906 113.601562 21.097656 C 113.601562 20.902344 113.601562 20.710938 113.601562 20.515625 C 113.601562 20.109375 113.601562 19.703125 113.601562 19.296875 C 113.601562 18.773438 113.601562 18.25 113.601562 17.726562 C 113.601562 17.324219 113.601562 16.925781 113.601562 16.523438 C 113.601562 16.332031 113.601562 16.140625 113.601562 15.945312 C 113.601562 15.675781 113.601562 15.410156 113.601562 15.140625 C 113.601562 15.058594 113.601562 14.980469 113.601562 14.894531 C 113.605469 14.230469 113.605469 14.230469 113.953125 14.207031 Z M 113.953125 14.207031 "/>
<path style=" stroke:none;fill-rule:nonzero;fill:rgb(4.705882%,4.705882%,4.705882%);fill-opacity:1;" d="M 54.019531 27.320312 C 54.570312 27.632812 54.855469 27.96875 55.089844 28.554688 C 55.089844 28.886719 55.089844 29.214844 55.089844 29.554688 C 53.957031 29.554688 52.820312 29.554688 51.652344 29.554688 C 51.910156 30.515625 51.910156 30.515625 52.539062 31.109375 C 53.09375 31.195312 53.582031 31.183594 54.097656 30.972656 C 54.320312 30.773438 54.429688 30.613281 54.535156 30.332031 C 54.71875 30.332031 54.902344 30.332031 55.089844 30.332031 C 55.066406 30.808594 55.011719 30.96875 54.667969 31.304688 C 53.984375 31.789062 53.484375 31.871094 52.652344 31.777344 C 52.058594 31.582031 51.667969 31.171875 51.320312 30.667969 C 51.050781 29.992188 50.957031 29.226562 51.179688 28.523438 C 51.699219 27.394531 52.832031 26.875 54.019531 27.320312 Z M 54.019531 27.320312 "/>
<path style=" stroke:none;fill-rule:nonzero;fill:rgb(5.098039%,5.098039%,5.098039%);fill-opacity:1;" d="M 32.699219 25.554688 C 32.882812 25.554688 33.066406 25.554688 33.253906 25.554688 C 33.253906 27.570312 33.253906 29.589844 33.253906 31.667969 C 33.070312 31.667969 32.886719 31.667969 32.699219 31.667969 C 32.664062 31.519531 32.625 31.375 32.589844 31.222656 C 32.433594 31.328125 32.433594 31.328125 32.277344 31.4375 C 31.722656 31.796875 31.238281 31.871094 30.59375 31.777344 C 29.972656 31.523438 29.578125 31.152344 29.261719 30.554688 C 29.027344 29.800781 29.054688 28.917969 29.367188 28.191406 C 29.652344 27.726562 30.101562 27.433594 30.59375 27.222656 C 30.847656 27.179688 30.847656 27.179688 31.121094 27.171875 C 31.207031 27.167969 31.296875 27.164062 31.386719 27.160156 C 31.703125 27.222656 31.703125 27.222656 32.589844 27.777344 C 32.625 27.042969 32.660156 26.3125 32.699219 25.554688 Z M 29.929688 28.332031 C 29.644531 28.917969 29.648438 29.472656 29.707031 30.109375 C 29.886719 30.632812 30.105469 30.957031 30.59375 31.222656 C 31.085938 31.304688 31.574219 31.335938 32.03125 31.117188 C 32.394531 30.832031 32.558594 30.539062 32.699219 30.109375 C 32.777344 29.417969 32.765625 28.816406 32.367188 28.222656 C 32.101562 27.898438 31.871094 27.796875 31.449219 27.746094 C 30.734375 27.71875 30.410156 27.789062 29.929688 28.332031 Z M 29.929688 28.332031 "/>
<path style=" stroke:none;fill-rule:nonzero;fill:rgb(1.176471%,1.176471%,1.176471%);fill-opacity:1;" d="M 83.464844 10.445312 C 84.308594 10.445312 85.148438 10.445312 86.015625 10.445312 C 86.015625 11.324219 86.015625 12.203125 86.015625 13.109375 C 85.175781 13.109375 84.332031 13.109375 83.464844 13.109375 C 83.464844 12.230469 83.464844 11.351562 83.464844 10.445312 Z M 83.464844 10.445312 "/>
<path style=" stroke:none;fill-rule:nonzero;fill:rgb(6.27451%,6.27451%,6.27451%);fill-opacity:1;" d="M 58.300781 27.3125 C 58.550781 27.480469 58.757812 27.675781 58.96875 27.890625 C 59.015625 28.109375 59.050781 28.332031 59.082031 28.554688 C 58.824219 28.589844 58.824219 28.589844 58.527344 28.554688 C 58.339844 28.285156 58.339844 28.285156 58.195312 28 C 57.9375 27.871094 57.765625 27.867188 57.480469 27.859375 C 57.351562 27.855469 57.351562 27.855469 57.21875 27.851562 C 56.96875 27.871094 56.96875 27.871094 56.777344 28.015625 C 56.585938 28.308594 56.621094 28.546875 56.640625 28.890625 C 56.753906 28.910156 56.867188 28.929688 56.984375 28.949219 C 57.136719 28.976562 57.289062 29.007812 57.4375 29.035156 C 57.511719 29.046875 57.589844 29.0625 57.664062 29.074219 C 58.125 29.164062 58.480469 29.273438 58.859375 29.554688 C 59.160156 30.007812 59.140625 30.359375 59.082031 30.890625 C 58.929688 31.273438 58.796875 31.410156 58.464844 31.644531 C 57.808594 31.871094 57.230469 31.902344 56.601562 31.597656 C 56.285156 31.308594 56.074219 31.039062 55.867188 30.667969 C 55.867188 30.558594 55.867188 30.445312 55.867188 30.332031 C 56.050781 30.332031 56.230469 30.332031 56.421875 30.332031 C 56.46875 30.441406 56.519531 30.546875 56.574219 30.660156 C 56.714844 31.007812 56.714844 31.007812 56.972656 31.109375 C 57.15625 31.128906 57.339844 31.136719 57.523438 31.140625 C 57.667969 31.144531 57.667969 31.144531 57.816406 31.148438 C 58.085938 31.132812 58.085938 31.132812 58.28125 30.964844 C 58.480469 30.6875 58.4375 30.441406 58.414062 30.109375 C 57.984375 29.855469 57.625 29.746094 57.125 29.671875 C 56.738281 29.609375 56.558594 29.578125 56.238281 29.339844 C 55.949219 28.902344 55.933594 28.515625 55.976562 28 C 56.480469 27.191406 57.414062 26.941406 58.300781 27.3125 Z M 58.300781 27.3125 "/>
<path style=" stroke:none;fill-rule:nonzero;fill:rgb(6.27451%,6.27451%,6.27451%);fill-opacity:1;" d="M 41.566406 27.3125 C 41.8125 27.480469 42.019531 27.675781 42.230469 27.890625 C 42.277344 28.109375 42.3125 28.332031 42.34375 28.554688 C 42.085938 28.589844 42.085938 28.589844 41.789062 28.554688 C 41.601562 28.285156 41.601562 28.285156 41.457031 28 C 41.199219 27.871094 41.03125 27.867188 40.742188 27.859375 C 40.613281 27.855469 40.613281 27.855469 40.480469 27.851562 C 40.234375 27.871094 40.234375 27.871094 40.039062 28.015625 C 39.847656 28.308594 39.882812 28.546875 39.90625 28.890625 C 40.019531 28.910156 40.132812 28.929688 40.25 28.949219 C 40.398438 28.976562 40.550781 29.007812 40.699219 29.035156 C 40.777344 29.046875 40.851562 29.0625 40.925781 29.074219 C 41.386719 29.164062 41.742188 29.273438 42.121094 29.554688 C 42.421875 30.007812 42.402344 30.359375 42.34375 30.890625 C 42.195312 31.273438 42.058594 31.410156 41.726562 31.644531 C 41.074219 31.871094 40.492188 31.902344 39.863281 31.597656 C 39.546875 31.308594 39.335938 31.039062 39.128906 30.667969 C 39.128906 30.558594 39.128906 30.445312 39.128906 30.332031 C 39.3125 30.332031 39.496094 30.332031 39.683594 30.332031 C 39.734375 30.441406 39.785156 30.546875 39.835938 30.660156 C 39.976562 31.007812 39.976562 31.007812 40.238281 31.109375 C 40.417969 31.128906 40.601562 31.136719 40.785156 31.140625 C 40.929688 31.144531 40.929688 31.144531 41.078125 31.148438 C 41.351562 31.132812 41.351562 31.132812 41.546875 30.964844 C 41.742188 30.6875 41.699219 30.441406 41.679688 30.109375 C 41.246094 29.855469 40.886719 29.746094 40.390625 29.671875 C 40.003906 29.609375 39.824219 29.578125 39.503906 29.339844 C 39.210938 28.902344 39.195312 28.515625 39.238281 28 C 39.742188 27.191406 40.675781 26.941406 41.566406 27.3125 Z M 41.566406 27.3125 "/>
<path style=" stroke:none;fill-rule:nonzero;fill:rgb(6.27451%,6.27451%,6.27451%);fill-opacity:1;" d="M 27.046875 27.222656 C 27.519531 27.441406 27.808594 27.71875 28.0625 28.175781 C 28.273438 28.789062 28.199219 29.464844 28.183594 30.105469 C 28.179688 30.253906 28.179688 30.40625 28.175781 30.558594 C 28.171875 30.929688 28.164062 31.296875 28.15625 31.667969 C 27.972656 31.667969 27.789062 31.667969 27.601562 31.667969 C 27.597656 31.574219 27.597656 31.484375 27.59375 31.390625 C 27.585938 30.976562 27.578125 30.558594 27.566406 30.144531 C 27.5625 30.003906 27.5625 29.859375 27.558594 29.710938 C 27.550781 29.503906 27.550781 29.503906 27.546875 29.289062 C 27.542969 29.164062 27.539062 29.035156 27.539062 28.902344 C 27.484375 28.523438 27.386719 28.308594 27.15625 28 C 26.746094 27.792969 26.277344 27.824219 25.828125 27.890625 C 25.457031 28.167969 25.308594 28.335938 25.160156 28.777344 C 25.144531 29 25.132812 29.21875 25.125 29.441406 C 25.121094 29.570312 25.117188 29.699219 25.113281 29.835938 C 25.109375 29.96875 25.105469 30.105469 25.097656 30.242188 C 25.09375 30.378906 25.089844 30.515625 25.085938 30.65625 C 25.074219 30.992188 25.0625 31.328125 25.050781 31.667969 C 24.867188 31.667969 24.683594 31.667969 24.496094 31.667969 C 24.496094 30.238281 24.496094 28.808594 24.496094 27.332031 C 24.679688 27.332031 24.863281 27.332031 25.050781 27.332031 C 25.085938 27.515625 25.125 27.699219 25.160156 27.890625 C 25.292969 27.753906 25.292969 27.753906 25.425781 27.617188 C 25.921875 27.132812 26.375 27.148438 27.046875 27.222656 Z M 27.046875 27.222656 "/>
<path style=" stroke:none;fill-rule:nonzero;fill:rgb(4.705882%,4.705882%,4.705882%);fill-opacity:1;" d="M 34.582031 27.332031 C 34.765625 27.332031 34.949219 27.332031 35.136719 27.332031 C 35.140625 27.425781 35.140625 27.515625 35.144531 27.609375 C 35.152344 28.023438 35.160156 28.441406 35.171875 28.855469 C 35.175781 28.996094 35.175781 29.140625 35.179688 29.289062 C 35.183594 29.429688 35.1875 29.566406 35.191406 29.710938 C 35.195312 29.835938 35.199219 29.964844 35.199219 30.097656 C 35.261719 30.550781 35.414062 30.867188 35.773438 31.152344 C 36.15625 31.257812 36.417969 31.210938 36.800781 31.109375 C 37.085938 30.867188 37.296875 30.671875 37.464844 30.332031 C 37.484375 30.109375 37.492188 29.882812 37.5 29.65625 C 37.503906 29.519531 37.511719 29.386719 37.515625 29.246094 C 37.519531 29.105469 37.523438 28.964844 37.527344 28.820312 C 37.53125 28.675781 37.539062 28.535156 37.542969 28.390625 C 37.554688 28.035156 37.566406 27.683594 37.578125 27.332031 C 37.757812 27.332031 37.941406 27.332031 38.128906 27.332031 C 38.128906 28.761719 38.128906 30.191406 38.128906 31.667969 C 37.949219 31.667969 37.765625 31.667969 37.578125 31.667969 C 37.539062 31.519531 37.503906 31.375 37.464844 31.222656 C 37.335938 31.328125 37.335938 31.328125 37.203125 31.4375 C 36.746094 31.796875 36.441406 31.828125 35.871094 31.824219 C 35.46875 31.761719 35.253906 31.59375 34.957031 31.320312 C 34.597656 30.824219 34.554688 30.296875 34.5625 29.699219 C 34.5625 29.5625 34.5625 29.421875 34.5625 29.28125 C 34.566406 29.136719 34.566406 28.996094 34.570312 28.847656 C 34.570312 28.703125 34.570312 28.554688 34.574219 28.40625 C 34.574219 28.050781 34.578125 27.691406 34.582031 27.332031 Z M 34.582031 27.332031 "/>
<path style=" stroke:none;fill-rule:nonzero;fill:rgb(95.294118%,95.294118%,95.294118%);fill-opacity:1;" d="M 100.933594 19.324219 C 101.03125 19.324219 101.132812 19.324219 101.234375 19.324219 C 101.390625 19.324219 101.390625 19.324219 101.546875 19.328125 C 101.652344 19.328125 101.757812 19.328125 101.867188 19.328125 C 102.125 19.328125 102.382812 19.332031 102.644531 19.332031 C 102.542969 20.109375 102.386719 20.71875 101.757812 21.222656 C 101.207031 21.492188 100.675781 21.503906 100.09375 21.332031 C 99.730469 21.03125 99.664062 20.855469 99.585938 20.390625 C 99.664062 19.902344 99.828125 19.75 100.203125 19.445312 C 100.46875 19.3125 100.636719 19.320312 100.933594 19.324219 Z M 100.933594 19.324219 "/>
<path style=" stroke:none;fill-rule:nonzero;fill:rgb(3.529412%,3.529412%,3.529412%);fill-opacity:1;" d="M 43.785156 25.890625 C 43.964844 25.890625 44.148438 25.890625 44.339844 25.890625 C 44.339844 26.367188 44.339844 26.84375 44.339844 27.332031 C 44.777344 27.332031 45.214844 27.332031 45.667969 27.332031 C 45.667969 27.480469 45.667969 27.625 45.667969 27.777344 C 45.230469 27.777344 44.789062 27.777344 44.339844 27.777344 C 44.339844 28.914062 44.339844 30.050781 44.339844 31.222656 C 44.777344 31.222656 45.214844 31.222656 45.667969 31.222656 C 45.667969 31.367188 45.667969 31.515625 45.667969 31.667969 C 45.417969 31.675781 45.164062 31.683594 44.914062 31.6875 C 44.703125 31.691406 44.703125 31.691406 44.488281 31.699219 C 44.117188 31.667969 44.117188 31.667969 43.929688 31.546875 C 43.710938 31.222656 43.742188 30.902344 43.75 30.523438 C 43.75 30.445312 43.753906 30.367188 43.753906 30.285156 C 43.753906 30.035156 43.757812 29.785156 43.761719 29.535156 C 43.765625 29.363281 43.765625 29.195312 43.769531 29.023438 C 43.769531 28.609375 43.777344 28.195312 43.785156 27.777344 C 43.492188 27.777344 43.199219 27.777344 42.898438 27.777344 C 42.898438 27.632812 42.898438 27.484375 42.898438 27.332031 C 43.191406 27.332031 43.480469 27.332031 43.785156 27.332031 C 43.785156 26.855469 43.785156 26.378906 43.785156 25.890625 Z M 43.785156 25.890625 "/>
<path style=" stroke:none;fill-rule:nonzero;fill:rgb(0%,0%,0%);fill-opacity:1;" d="M 22.5 25.667969 C 22.683594 25.667969 22.867188 25.667969 23.054688 25.667969 C 23.054688 27.648438 23.054688 29.625 23.054688 31.667969 C 22.871094 31.667969 22.691406 31.667969 22.5 31.667969 C 22.5 29.6875 22.5 27.707031 22.5 25.667969 Z M 22.5 25.667969 "/>
<path style=" stroke:none;fill-rule:nonzero;fill:rgb(93.333334%,93.333334%,93.333334%);fill-opacity:1;" d="M 53.648438 27.777344 C 54.117188 27.96875 54.324219 28.210938 54.535156 28.667969 C 54.535156 28.8125 54.535156 28.960938 54.535156 29.109375 C 53.585938 29.109375 52.632812 29.109375 51.652344 29.109375 C 51.78125 28.476562 51.898438 28.34375 52.320312 27.890625 C 52.726562 27.683594 53.203125 27.738281 53.648438 27.777344 Z M 53.648438 27.777344 "/>
<path style=" stroke:none;fill-rule:nonzero;fill:rgb(4.313726%,4.313726%,4.313726%);fill-opacity:1;" d="M 47.796875 27.3125 C 47.878906 27.3125 47.960938 27.316406 48.046875 27.316406 C 48.25 27.320312 48.457031 27.328125 48.660156 27.332031 C 48.660156 27.480469 48.660156 27.625 48.660156 27.777344 C 48.148438 27.777344 47.636719 27.777344 47.109375 27.777344 C 47.109375 29.0625 47.109375 30.34375 47.109375 31.667969 C 46.925781 31.667969 46.742188 31.667969 46.554688 31.667969 C 46.546875 31.101562 46.539062 30.539062 46.535156 29.976562 C 46.535156 29.785156 46.53125 29.59375 46.53125 29.402344 C 46.527344 29.125 46.523438 28.851562 46.523438 28.574219 C 46.519531 28.488281 46.519531 28.402344 46.515625 28.3125 C 46.515625 27.726562 46.515625 27.726562 46.695312 27.445312 C 47.035156 27.246094 47.417969 27.300781 47.796875 27.3125 Z M 47.796875 27.3125 "/>
<path style=" stroke:none;fill-rule:nonzero;fill:rgb(3.137255%,3.137255%,3.137255%);fill-opacity:1;" d="M 113.503906 10.777344 C 113.980469 10.777344 114.457031 10.777344 114.945312 10.777344 C 114.945312 11.363281 114.945312 11.949219 114.945312 12.554688 C 114.472656 12.554688 113.996094 12.554688 113.503906 12.554688 C 113.503906 11.96875 113.503906 11.382812 113.503906 10.777344 Z M 113.503906 10.777344 "/>
<path style=" stroke:none;fill-rule:nonzero;fill:rgb(5.098039%,5.098039%,5.098039%);fill-opacity:1;" d="M 49.546875 27.332031 C 49.730469 27.332031 49.914062 27.332031 50.101562 27.332031 C 50.101562 28.761719 50.101562 30.191406 50.101562 31.667969 C 49.917969 31.667969 49.734375 31.667969 49.546875 31.667969 C 49.546875 30.238281 49.546875 28.808594 49.546875 27.332031 Z M 49.546875 27.332031 "/>
<path style=" stroke:none;fill-rule:nonzero;fill:rgb(7.450981%,7.450981%,7.450981%);fill-opacity:1;" d="M 49.546875 25.554688 C 49.765625 25.554688 49.988281 25.554688 50.214844 25.554688 C 50.214844 25.847656 50.214844 26.140625 50.214844 26.445312 C 49.992188 26.445312 49.773438 26.445312 49.546875 26.445312 C 49.546875 26.152344 49.546875 25.859375 49.546875 25.554688 Z M 49.546875 25.554688 "/>
</g>
</svg>
