<svg width="63" height="60" viewBox="0 0 63 60" fill="none" xmlns="http://www.w3.org/2000/svg">
<mask id="mask0_49907_31016" style="mask-type:luminance" maskUnits="userSpaceOnUse" x="1" y="0" width="60" height="60">
<path d="M61 0H1V60H61V0Z" fill="white"/>
</mask>
<g mask="url(#mask0_49907_31016)">
<path d="M33.8169 30.6631H30.3285V27.1729H26.8401V30.6631H23.3516V34.1534H26.8401V37.6437H30.3285V34.1534H33.8169V30.6631Z" fill="#000032"/>
<path d="M24.2884 5.21116C25.7082 5.34146 26.6687 7.01679 26.8303 8.41987C26.85 8.58974 26.8582 8.75611 26.8536 8.9155V25.4279H30.342L30.3106 9.752C30.3106 6.98538 27.7257 5.21465 24.5174 5.20068H24.1094C24.1605 5.20185 24.2105 5.20417 24.2594 5.20883C24.2687 5.20883 24.278 5.21116 24.2861 5.21116H24.2884Z" fill="#36D6D9"/>
<path d="M55.793 36.6991C55.7987 36.7619 55.8034 36.8248 55.8034 36.8887L55.8045 36.4804C55.7917 33.2705 54.0208 30.6842 51.2557 30.6842L35.5879 30.6528V34.143H52.0917C52.2381 34.1384 52.3917 34.1454 52.5487 34.1617C53.9545 34.3094 55.6522 35.2704 55.7917 36.6968L55.793 36.6991Z" fill="#36D6D9"/>
<path d="M60.9984 22.6822C60.9984 24.2144 59.21 25.2545 57.7413 25.4081C57.5856 25.4244 57.4332 25.4313 57.2867 25.4267H35.5619V3.71492C35.5584 3.60788 35.5619 3.49736 35.57 3.3845C35.6758 1.89998 36.7224 0.0152391 38.2887 0.00244141C38.2944 0.00244141 38.2991 0.00244141 38.305 0.00244141H37.8968C34.6885 0.0140756 32.1036 1.78597 32.1036 4.55142L32.0723 28.9181H35.5607V28.9158L56.4495 28.8867C59.2146 28.8867 60.9845 26.3004 60.9984 23.0906V22.6822Z" fill="#36D6D9"/>
<path d="M35.5703 3.3845C35.7599 3.39847 35.9494 3.41475 36.1378 3.43221C37.7145 3.58578 39.2692 3.89292 40.7809 4.35247C45.6078 5.81955 49.7078 8.88866 52.7602 12.9443C55.5207 16.6126 57.3743 20.8696 57.7417 25.4081C59.2103 25.2545 60.9988 24.2144 60.9988 22.6822C60.9895 22.3495 60.9533 22.1808 60.9197 22.0412C59.9126 17.8214 58.3452 14.1124 55.6881 10.5826C52.1869 5.93007 48.1288 2.88308 42.6437 1.02044C41.4542 0.616728 40.0797 0.139725 38.3273 0.00244141H38.289C36.7226 0.0164025 35.6761 1.89998 35.5703 3.3845Z" fill="url(#paint0_linear_49907_31016)"/>
<path d="M55.8033 36.8896L55.7929 36.7C55.6522 35.2724 53.9557 34.3127 52.5498 34.1649C51.6266 46.5867 41.2334 56.4479 28.5854 56.4479C15.9375 56.4479 4.55239 45.6594 4.55239 32.3999C4.55239 19.1404 14.3328 9.36652 26.8296 8.41949C26.6679 7.01641 25.7074 5.34108 24.2877 5.21077L24.2609 5.20845C24.211 5.20496 24.1609 5.20264 24.1109 5.20264H24.0992C21.8981 5.2992 19.6515 5.94374 17.6014 6.76977C7.85594 10.6998 1 21.1101 1 32.3999C1 47.6187 13.3747 59.9998 28.5854 59.9998C38.074 59.9998 46.4381 55.3078 51.3905 48.0677C53.6278 44.7962 55.5441 40.751 55.8033 36.8896Z" fill="url(#paint1_linear_49907_31016)"/>
</g>
<defs>
<linearGradient id="paint0_linear_49907_31016" x1="36.8087" y1="-2.06612" x2="63.4674" y2="24.5774" gradientUnits="userSpaceOnUse">
<stop stop-color="#000032"/>
<stop offset="0.05" stop-color="#0C3058"/>
<stop offset="0.12" stop-color="#1B6B85"/>
<stop offset="0.19" stop-color="#2699A9"/>
<stop offset="0.24" stop-color="#2FBAC3"/>
<stop offset="0.29" stop-color="#34CED3"/>
<stop offset="0.32" stop-color="#36D6D9"/>
<stop offset="0.5" stop-color="#36D6D9"/>
<stop offset="0.68" stop-color="#36D6D9"/>
<stop offset="0.71" stop-color="#33CCD1"/>
<stop offset="0.76" stop-color="#2DB3BE"/>
<stop offset="0.83" stop-color="#228A9E"/>
<stop offset="0.9" stop-color="#145171"/>
<stop offset="0.99" stop-color="#020939"/>
<stop offset="1" stop-color="#000032"/>
</linearGradient>
<linearGradient id="paint1_linear_49907_31016" x1="14.3282" y1="46.5449" x2="53.1213" y2="7.77199" gradientUnits="userSpaceOnUse">
<stop offset="0.45" stop-color="#36D6D9"/>
<stop offset="0.55" stop-color="#289EAE"/>
<stop offset="0.78" stop-color="#051543"/>
<stop offset="0.82" stop-color="#000032"/>
</linearGradient>
</defs>
</svg>
