<svg width="15" height="12" viewBox="0 0 15 12" fill="none" xmlns="http://www.w3.org/2000/svg">
<path d="M9.30823 0.640877C8.92584 0.242383 8.29281 0.229326 7.89432 0.611714C7.49582 0.994102 7.48277 1.62713 7.86515 2.02563L9.30823 0.640877ZM13.0647 5.99992L13.7863 6.69229C14.1576 6.30537 14.1576 5.69447 13.7863 5.30754L13.0647 5.99992ZM7.86515 9.97421C7.48277 10.3727 7.49582 11.0057 7.89432 11.3881C8.29281 11.7705 8.92584 11.7575 9.30823 11.359L7.86515 9.97421ZM12.2202 7.02108C12.7724 7.02108 13.2202 6.57336 13.2202 6.02108C13.2202 5.46879 12.7724 5.02108 12.2202 5.02108V7.02108ZM1.73145 5.02108C1.17916 5.02108 0.731445 5.46879 0.731445 6.02108C0.731445 6.57336 1.17916 7.02108 1.73145 7.02108V5.02108ZM7.86515 2.02563L12.3432 6.69229L13.7863 5.30754L9.30823 0.640877L7.86515 2.02563ZM12.3432 5.30754L7.86515 9.97421L9.30823 11.359L13.7863 6.69229L12.3432 5.30754ZM12.2202 5.02108H1.73145V7.02108H12.2202V5.02108Z" fill="#FCFCFC"/>
</svg>
