<svg width="337" height="44" viewBox="0 0 337 44" fill="none" xmlns="http://www.w3.org/2000/svg">
<g clip-path="url(#clip0_376_12513)">
<path d="M25.7227 1.89575V18.3737H8.92558V1.89575H0.240967V43.3948H8.92558V26.0246H25.7227V43.3948H34.4073V1.89575H25.7227Z" fill="#14142B"/>
<path d="M89.8359 35.6798V1.89575H81.1423V35.8034C81.1423 40.7271 83.7571 43.3948 88.5575 43.3948H108.309V35.6798H89.8359Z" fill="#14142B"/>
<path d="M39.8604 22.2036C39.8604 8.2379 48.6746 1.01709 58.7269 1.01709C68.1892 1.01709 75.1217 6.93376 76.1453 15.8706H67.7065C67.1702 11.5509 63.4603 8.64974 58.7269 8.64974C52.6526 8.64974 47.9773 13.3263 47.9773 22.1991C47.9773 31.0718 52.6526 35.6889 58.7269 35.6889C63.5631 35.6889 67.273 32.7878 67.9211 28.5276H75.9844C75.2871 37.4049 68.3502 43.381 58.7269 43.381C48.5137 43.381 39.8604 36.1602 39.8604 22.1945V22.2036Z" fill="#14142B"/>
<path d="M111.398 28.7061H121.24C121.472 32.2021 123.788 34.458 127.261 34.458C130.331 34.458 132.298 32.9754 132.298 30.6646C132.298 23.668 112.435 30.0102 112.435 13.1159C112.435 6.05983 118.344 1.02173 126.621 1.02173C135.655 1.02173 141.622 6.29777 141.734 14.42H132.003C131.771 11.7523 129.804 10.0317 126.617 10.0317C124.069 10.0317 122.389 11.2764 122.389 13.1159C122.389 20.8813 142.601 13.7108 142.601 30.4861C142.601 38.3705 136.58 43.468 127.256 43.468C117.932 43.468 111.679 37.6566 111.389 28.7061H111.398Z" fill="#14142B"/>
<path d="M226.148 43.3993H234.314L238.945 26.9763L243.464 43.3993H251.63L261.36 13.5185H251.804L247.518 29.7036L243.173 13.5185H234.605L230.318 29.7036L225.974 13.5185H225.978H209.637V0.5H200.081V13.5231H189.179V8.51245H197.171V0.5H186.69C182.519 0.5 179.623 3.41487 179.623 7.68421V13.5231H173.017V18.9684C170.272 15.0652 165.704 12.6674 160.166 12.6674C151.075 12.6674 144.531 19.2476 144.531 28.0837C144.531 36.9198 151.075 43.5 160.166 43.5C169.258 43.5 175.801 36.9198 175.801 28.0837C175.801 25.75 175.346 23.5718 174.505 21.6316L179.623 21.6408V43.4039H189.179V21.5859H200.081V36.1694C200.081 40.7956 202.629 43.4039 207.147 43.4039H216.994V35.3411H209.641V21.5859H216.838V14.6579L226.153 43.3993H226.148ZM160.171 35.1901C156.524 35.1901 154.092 32.3439 154.092 28.0745C154.092 23.8052 156.524 20.959 160.171 20.959C163.818 20.959 166.25 23.8052 166.25 28.0745C166.25 32.3439 163.818 35.1901 160.171 35.1901Z" fill="#14142B"/>
<path d="M260.873 34.5494C260.873 28.6785 265.043 25.123 271.18 25.123H275.35C276.857 25.123 277.666 24.0568 277.666 22.6337C277.666 20.8536 276.218 19.609 273.612 19.609C270.425 19.609 269.267 21.627 269.209 23.7593H260.869C261.101 17.71 265.557 12.6719 274.188 12.6719C281.483 12.6719 287.159 17.0602 287.159 23.8188V43.3901H277.661V39.3495C276.91 41.8388 273.956 43.4999 270.192 43.4999C264.748 43.4999 260.869 39.528 260.869 34.5494H260.873ZM272.861 36.6818C275.932 36.6818 277.666 34.0735 277.666 31.2868V31.0488H272.803C271.122 31.0488 269.906 32.2935 269.906 34.0735C269.906 35.6156 271.18 36.6818 272.861 36.6818Z" fill="#14142B"/>
<path d="M308.069 21.6317C307.26 23.7229 306.884 25.9651 306.884 28.0792C306.884 35.1353 311.631 43.4955 322.112 43.4955C329.295 43.4955 335.025 39.2857 336.241 32.646H327.033C326.51 34.664 324.718 35.6112 322.112 35.6112C318.639 35.6112 316.61 33.7122 316.034 30.3946H336.129C336.187 29.6854 336.245 28.8525 336.245 27.4889C336.245 21.2062 332.598 12.6675 321.536 12.6675C316.118 12.6675 312.386 14.9005 310.044 18.0305V17.7513V13.5232H297.194C293.024 13.5232 290.127 16.4884 290.127 20.7577V43.404H299.683V21.6271H308.069V21.6317ZM321.531 19.6046C324.83 19.6046 326.627 22.0344 326.801 24.5832H316.029C316.668 20.9682 318.461 19.6046 321.531 19.6046Z" fill="#14142B"/>
</g>
<defs>
<clipPath id="clip0_376_12513">
<rect width="336" height="43" fill="#14142B" transform="translate(0.240967 0.5)"/>
</clipPath>
</defs>
</svg>
