<svg xmlns="http://www.w3.org/2000/svg"><symbol viewBox="0 0 24 24" id="stActions"><title>Actions</title> <g> <path d="M20.4,12c0-0.5,0-0.9-0.1-1.3L23,8.3l-2.3-3.7l-3.2,1c-0.8-0.7-1.6-1.2-2.6-1.5L14.2,1H9.8L9.1,4.1C8.1,4.4,7.2,5,6.5,5.6
		l-3.2-1L1,8.3l2.7,2.3c-0.1,0.4-0.1,0.9-0.1,1.3c0,0.5,0,0.9,0.1,1.3L1,15.7l2.3,3.7l3.2-1c0.8,0.7,1.6,1.2,2.6,1.5L9.8,23h4.4
		l0.7-3.1c1-0.4,1.9-0.9,2.6-1.5l3.2,1l2.3-3.7l-2.7-2.3C20.4,12.9,20.4,12.5,20.4,12z M21.1,16l-1,1.7L18,17l-0.8-0.3l-0.6,0.5
		c-0.6,0.6-1.4,1-2.2,1.3l-0.7,0.3l-0.2,0.8l-0.4,2H11l-0.4-2l-0.2-0.8l-0.7-0.3c-0.8-0.3-1.5-0.7-2.2-1.3l-0.6-0.5L6,17l-2.1,0.7
		l-1-1.7l1.8-1.5l0.6-0.5l-0.1-0.8C5.1,12.7,5,12.3,5,12s0-0.7,0.1-1.1l0.1-0.8L4.6,9.6L2.9,8l1-1.7L6,7l0.8,0.3l0.6-0.5
		c0.6-0.6,1.4-1,2.2-1.3l0.7-0.3l0.2-0.8l0.4-2H13l0.4,2l0.2,0.8l0.7,0.3c0.8,0.3,1.5,0.7,2.2,1.3l0.6,0.5L18,7l2.1-0.7l1,1.7
		l-1.8,1.5l-0.6,0.5l0.1,0.8c0.1,0.4,0.1,0.8,0.1,1.1s0,0.7-0.1,1.1l-0.1,0.8l0.6,0.5L21.1,16z"/> <path d="M12,7.6c-2.4,0-4.4,2-4.4,4.4s2,4.4,4.4,4.4c2.4,0,4.4-2,4.4-4.4S14.4,7.6,12,7.6z M12,13.5c-0.8,0-1.5-0.7-1.5-1.5
		s0.7-1.5,1.5-1.5s1.5,0.7,1.5,1.5S12.8,13.5,12,13.5z"/> </g> </symbol><symbol viewBox="0 0 48 48" id="stBee"><title>Bee</title> <g> <path d="M17.6,20h12.7c-1.4-1.8-3.7-3.1-6.4-3.1C21.3,16.9,19,18.1,17.6,20z"/> <path d="M16.4,23c0,0.3,0,0.5,0,0.8v2.3h15.3v-2.3c0-0.3,0-0.5,0-0.8H16.4z"/> <path d="M16.3,31.5c0,0.3,0,0.5,0,0.8h15.2c0-0.3,0.1-0.5,0.1-0.8v-2.3H16.3V31.5z"/> <path d="M24,38.4c2.7,0,5-1.2,6.4-3.1H17.6C19,37.1,21.3,38.4,24,38.4z"/> <path d="M4.4,21.6c-0.7,0.3-1.3,0.7-1.8,1.2s-0.9,1.1-1.2,1.8C1.2,25.3,1,26,1,26.7c0,0.7,0.1,1.4,0.4,2.1c0.3,0.7,0.7,1.3,1.2,1.8
		c0.5,0.5,1.1,0.9,1.8,1.2c0.7,0.3,1.4,0.4,2.1,0.4c0,0,0,0,0,0s0,0,0,0c0.7,0,1.4-0.1,2.1-0.4c0.7-0.3,1.3-0.7,1.8-1.2
		c0.5-0.5,0.9-1.1,1.2-1.8l4.7-11.9L4.4,21.6z M10.2,28.2c-0.2,0.5-0.5,0.9-0.9,1.3c-0.4,0.4-0.8,0.7-1.3,0.9
		c-0.5,0.2-1,0.3-1.5,0.3c-0.5,0-1-0.1-1.5-0.3c-0.5-0.2-0.9-0.5-1.3-0.9c-0.4-0.4-0.7-0.8-0.9-1.3c-0.2-0.5-0.3-1-0.3-1.5
		c0-0.5,0.1-1,0.3-1.5c0.2-0.5,0.5-0.9,0.9-1.3C4.1,23.5,4.5,23.2,5,23l8.6-3.4L10.2,28.2z"/> <path d="M46.6,24.6c-0.3-0.7-0.7-1.3-1.2-1.8c-0.5-0.5-1.1-0.9-1.8-1.2l-11.9-4.7l4.7,11.9c0.3,0.7,0.7,1.3,1.2,1.8
		c0.5,0.5,1.1,0.9,1.8,1.2c0.7,0.3,1.4,0.4,2.1,0.4c0,0,0,0,0,0c0,0,0,0,0,0c0.7,0,1.4-0.1,2.1-0.4c0.7-0.3,1.3-0.7,1.8-1.2
		c0.5-0.5,0.9-1.1,1.2-1.8c0.3-0.7,0.4-1.4,0.4-2.1C47,26,46.8,25.3,46.6,24.6z M45.1,28.2c-0.2,0.5-0.5,0.9-0.9,1.3
		c-0.4,0.4-0.8,0.7-1.3,0.9c-0.5,0.2-1,0.3-1.5,0.3c-0.5,0-1-0.1-1.5-0.3c-0.5-0.2-0.9-0.5-1.3-0.9c-0.4-0.4-0.7-0.8-0.9-1.3
		l-3.4-8.6L43,23c0.5,0.2,0.9,0.5,1.3,0.9c0.4,0.4,0.7,0.8,0.9,1.3c0.2,0.5,0.3,1,0.3,1.5C45.5,27.2,45.4,27.7,45.1,28.2z"/> <path d="M20.2,15.4c1.7,0,3.1-1.4,3.1-3.1s-1.4-3.1-3.1-3.1c-1.7,0-3.1,1.4-3.1,3.1S18.5,15.4,20.2,15.4z M20.2,10.8
		c0.8,0,1.5,0.7,1.5,1.5s-0.7,1.5-1.5,1.5c-0.8,0-1.5-0.7-1.5-1.5S19.3,10.8,20.2,10.8z"/> <path d="M27.8,15.4c1.7,0,3.1-1.4,3.1-3.1s-1.4-3.1-3.1-3.1c-1.7,0-3.1,1.4-3.1,3.1S26.1,15.4,27.8,15.4z M27.8,10.8
		c0.8,0,1.5,0.7,1.5,1.5s-0.7,1.5-1.5,1.5c-0.8,0-1.5-0.7-1.5-1.5S27,10.8,27.8,10.8z"/> </g> </symbol><symbol viewBox="0 0 24 24" id="stClose"><title>Close</title> <g> <polygon points="15.4,7.5 12,10.9 8.7,7.5 7.5,8.6 10.9,12 7.5,15.3 8.7,16.5 12,13.1 15.4,16.5 16.5,15.3 13.1,12 16.5,8.6 	"/> <path d="M12,1C6,1,1,5.9,1,12S6,23,12,23S23,18,23,12S18.1,1,12,1z M12,21.4c-5.2,0-9.4-4.2-9.4-9.4S6.8,2.6,12,2.6
		s9.4,4.2,9.4,9.4S17.2,21.4,12,21.4z"/> </g> </symbol><symbol viewBox="0 0 43 24" id="stContent-Menu"><title>Content-Menu</title> <g> <polygon points="35,16.7 28.6,10.4 29.4,9.6 35,15.3 40.6,9.6 41.4,10.4 	"/> </g> <rect x="1" y="4" width="21" height="2"/> <rect x="9" y="9" width="9" height="2"/> <rect x="1" y="9" width="6" height="7"/> <rect x="9" y="14" width="14" height="2"/> <rect x="1" y="19" width="19" height="2"/> </symbol><symbol viewBox="0 0 24 24" id="stDropdown-close"><title>Dropdown-close</title> <g> <polygon points="11.8,7.8 2.6,18 3.4,18.7 11.8,9.3 21.3,18.7 22,18 	"/> </g> </symbol><symbol viewBox="0 0 24 24" id="stDropdown"><title>Dropdown</title> <g> <polygon points="11.8,18.7 2.6,8.5 3.4,7.9 11.8,17.3 21.3,7.8 22,8.5 	"/> </g> </symbol><symbol viewBox="0 0 24 24" id="stLoggedIn-Image"><title>LoggedIn-Image</title> <g> <path d="M11.9,1.2C5.9,1.2,1,6.1,1,12.1S5.9,23,11.9,23c6,0,10.9-4.9,10.9-10.9S17.9,1.2,11.9,1.2z M11.9,21.4
		c-5.2,0-9.4-4.2-9.4-9.4s4.2-9.4,9.4-9.4c5.2,0,9.4,4.2,9.4,9.4S17.1,21.4,11.9,21.4z"/> </g> </symbol><symbol viewBox="0 0 24 24" id="stLoggedIn-NoImage"><title>LoggedIn-NoImage</title> <g> <path d="M12,13c1.9,0,3-1.3,3-3.2c0-1.9-1.1-3.1-3-3.1S9,8.1,9,10C9,11.9,10.1,13,12,13z"/> <path d="M11.9,1.2C5.9,1.2,1,6.1,1,12.1S5.9,23,11.9,23c6,0,10.9-4.9,10.9-10.9S17.9,1.2,11.9,1.2z M12,5.5c2.4,0,4.3,1.9,4.3,4.3
		c0,2.4-1.9,4.3-4.3,4.3s-4.3-1.9-4.3-4.3C7.7,7.4,9.6,5.5,12,5.5z M17,18H7v-1.2c0-1,0.6-1.8,1.5-1.8h6.9c1,0,1.5,0.8,1.5,1.8V18z"/> </g> </symbol><symbol viewBox="0 0 24 24" id="stLoggedOut"><title>LoggedOut</title> <g> <path d="M11.9,1C5.9,1,1,5.9,1,11.9s4.9,10.9,10.9,10.9c6,0,10.9-4.9,10.9-10.9S17.9,1,11.9,1z M11.9,21.3c-5.2,0-9.4-4.2-9.4-9.4
		s4.2-9.4,9.4-9.4c5.2,0,9.4,4.2,9.4,9.4S17.1,21.3,11.9,21.3z"/> </g> <g> <path d="M12,14.2c2.4,0,4.3-1.9,4.3-4.3S14.4,5.5,12,5.5S7.7,7.4,7.7,9.8S9.6,14.2,12,14.2z M12,6.7c1.9,0,3,1.2,3,3.1
		S13.9,13,12,13s-3-1.1-3-3S10.1,6.7,12,6.7z"/> <path d="M15.5,15H8.5c-1,0-1.7,0.8-1.7,1.7V18h10.4v-1.2C17.2,15.8,16.4,15,15.5,15z"/> </g> </symbol><symbol viewBox="0 0 24 24" id="stMenu"><title>Menu</title> <g> <circle cx="12" cy="20.8" r="2.2"/> <circle cx="12" cy="12" r="2.2"/> <circle cx="12" cy="3.2" r="2.2"/> </g> </symbol><symbol viewBox="0 0 43 24" id="stPortlet-Menu"><title>Portlet-Menu</title> <g> <polygon points="35,16.7 28.6,10.4 29.4,9.6 35,15.3 40.6,9.6 41.4,10.4 	"/> </g> <path d="M1,4v18h22V4H1z M22,21H2V8h20V21z"/> </symbol><symbol viewBox="0 0 12 12" id="stSearch-close"><title>Search-close</title> <polygon points="9,2 6,5 3,2 2,3 5,6 2,9 3,10 6,7 9,10 10,9 7,6 10,3 "/> </symbol><symbol viewBox="0 0 24 24" id="stSearch"><title>Search</title> <path d="M9.1,2c3.9,0,7.1,3.2,7.1,7.1s-3.2,7.1-7.1,7.1S2,13,2,9.1S5.2,2,9.1,2 M9.1,1C4.6,1,1,4.6,1,9.1c0,4.5,3.6,8.1,8.1,8.1
	s8.1-3.6,8.1-8.1C17.1,4.6,13.5,1,9.1,1L9.1,1z"/> <rect x="17.8" y="15.7" transform="matrix(0.7071 -0.7071 0.7071 0.7071 -8.0082 19.3333)" width="3.1" height="7.3"/> <circle cx="15.7" cy="15.7" r="0.7"/> </symbol></svg>